<?xml version="1.0" encoding="UTF-8"?>
<svg version="1.1" xmlns="http://www.w3.org/2000/svg" width="180" height="100">
<path d="M0 0 C4.95 0 9.9 0 15 0 C18.84102514 4.13274857 21.21629105 7.27366376 24 12 C25.4777554 14.09917049 26.97652543 16.18377082 28.5 18.25 C29.1496875 19.16265625 29.799375 20.0753125 30.46875 21.015625 C30.9740625 21.67046875 31.479375 22.3253125 32 23 C32.33 23 32.66 23 33 23 C32.99476318 22.40985107 32.98952637 21.81970215 32.98413086 21.21166992 C32.96333953 18.53695745 32.95033299 15.86226199 32.9375 13.1875 C32.92912109 12.25873047 32.92074219 11.32996094 32.91210938 10.37304688 C32.90888672 9.48037109 32.90566406 8.58769531 32.90234375 7.66796875 C32.89710693 6.84578857 32.89187012 6.0236084 32.88647461 5.17651367 C33 3 33 3 34 0 C36.14576637 -0.02685938 38.29162645 -0.04633088 40.4375 -0.0625 C41.63246094 -0.07410156 42.82742187 -0.08570312 44.05859375 -0.09765625 C47 0 47 0 48 1 C48.09326716 2.56547048 48.11745582 4.13512772 48.11352539 5.70336914 C48.11344986 6.70433121 48.11337433 7.70529327 48.11329651 8.73658752 C48.10813522 9.8251152 48.10297394 10.91364288 48.09765625 12.03515625 C48.0962413 13.14354355 48.09482635 14.25193085 48.09336853 15.39390564 C48.08775033 18.95013069 48.07519475 22.50629383 48.0625 26.0625 C48.05748734 28.46679597 48.05292403 30.87109292 48.04882812 33.27539062 C48.03777499 39.18361504 48.02101917 45.0918031 48 51 C45.41334918 51.08617163 42.82957875 51.14931607 40.2421875 51.19921875 C39.51153076 51.22592651 38.78087402 51.25263428 38.02807617 51.28015137 C34.72455325 51.32798773 32.48158986 51.29997904 29.63891602 49.52929688 C27.8302995 47.4783065 26.45472302 45.31728819 25 43 C23.68010128 41.24238241 22.32499806 39.51560176 20.96630859 37.7878418 C18.94635001 35.2152928 16.97515479 32.60704536 15 30 C15.00523682 30.60062256 15.01047363 31.20124512 15.01586914 31.82006836 C15.03658014 34.52586838 15.04964125 37.23165177 15.0625 39.9375 C15.07087891 40.88302734 15.07925781 41.82855469 15.08789062 42.80273438 C15.09111328 43.70185547 15.09433594 44.60097656 15.09765625 45.52734375 C15.10289307 46.35999756 15.10812988 47.19265137 15.11352539 48.05053711 C15 50 15 50 14 51 C9.38 51 4.76 51 0 51 C0 34.17 0 17.34 0 0 Z " fill="#FEDE12" transform="translate(21,24)"/>
<path d="M0 0 C1.19919067 -0.0165564 1.19919067 -0.0165564 2.42260742 -0.03344727 C9.35747423 0.13325282 14.59424661 2.26135962 19.875 6.75 C21.375 8.625 21.375 8.625 21.375 10.625 C22.035 10.625 22.695 10.625 23.375 10.625 C25.87425345 16.47431659 26.92619252 21.27712729 26.875 27.625 C26.87145508 28.41519531 26.86791016 29.20539062 26.86425781 30.01953125 C26.71574616 35.21098193 26.04839867 39.06046845 22.859375 43.3125 C21.375 44.625 21.375 44.625 19.265625 45.625 C17.02183387 46.53324768 17.02183387 46.53324768 16.375 49.625 C10.46315804 52.47535237 5.08305042 52.90780623 -1.375 52.9375 C-2.10783203 52.94289795 -2.84066406 52.9482959 -3.59570312 52.95385742 C-7.69875641 52.89999314 -10.93461068 52.44840102 -14.625 50.625 C-14.625 49.965 -14.625 49.305 -14.625 48.625 C-15.181875 48.58375 -15.73875 48.5425 -16.3125 48.5 C-20.9391919 46.74935982 -23.16660978 42.49266721 -25.375 38.3125 C-28.28415103 29.73050446 -28.3617438 21.53712947 -24.50390625 13.203125 C-18.64476815 3.31064255 -11.13961093 0.1214683 0 0 Z M-7.125 16.9375 C-9.64860042 21.45895074 -10.1653466 25.52065444 -9.625 30.625 C-8.43962302 33.82551784 -7.56799185 35.88407783 -4.875 38 C-1.7574378 38.8659895 1.15920527 38.74868441 4.375 38.625 C4.375 37.965 4.375 37.305 4.375 36.625 C5.365 36.295 6.355 35.965 7.375 35.625 C9.94701926 31.12396629 10.96199315 27.69924467 10 22.55859375 C8.7879132 18.80870022 7.46177985 17.19731654 4.375 14.625 C-0.32369476 13.46079577 -3.5268256 13.60918868 -7.125 16.9375 Z " fill="#FEDE10" transform="translate(135.625,23.375)"/>
<path d="M0 0 C11.55 0 23.1 0 35 0 C35 4.29 35 8.58 35 13 C29.72 13 24.44 13 19 13 C19 15.31 19 17.62 19 20 C23.95 20.33 28.9 20.66 34 21 C34.09765625 27.93359375 34.09765625 27.93359375 34 30 C33 31 33 31 29.83984375 31.09765625 C28.55207031 31.08605469 27.26429687 31.07445313 25.9375 31.0625 C24.64714844 31.05347656 23.35679688 31.04445313 22.02734375 31.03515625 C21.02832031 31.02355469 20.02929688 31.01195313 19 31 C19 33.31 19 35.62 19 38 C24.28 38 29.56 38 35 38 C35 42.29 35 46.58 35 51 C23.45 51 11.9 51 0 51 C0 34.17 0 17.34 0 0 Z " fill="#FEDE13" transform="translate(73,24)"/>
<path d="M0 0 C0.66 0.33 1.32 0.66 2 1 C-0.97 3.97 -3.94 6.94 -7 10 C-7 6.04435836 -5.59478606 4.89133304 -3 2 C-2.01 1.34 -1.02 0.68 0 0 Z " fill="#FEE967" transform="translate(120,27)"/>
</svg>
